{"title":"Sound of Noise(2010)MPEG-4[DaScubaDude]","uid":15071555,"size":1118497527,"categoryP":"video","categoryS":"movies","magnet":"?xt=urn:btih:a5ccff696e519bd1956c9cb690ada40f92e6c428&amp;dn=Sound+of+Noise%282010%29MPEG-4%5BDaScubaDude%5D&amp;tr=udp%3A%2F%2Ftracker.leechers-paradise.org%3A6969&amp;tr=udp%3A%2F%2Fzer0day.ch%3A1337&amp;tr=udp%3A%2F%2Fopen.demonii.com%3A1337&amp;tr=udp%3A%2F%2Ftracker.coppersurfer.tk%3A6969&amp;tr=udp%3A%2F%2Fexodus.desync.com%3A6969","seeders":4,"leechers":2,"uploader":"dascuba","files":1,"time":1466813915,"description":"Sound of Noise (2010)\r\nR | 1h 42min | Comedy, Crime, Music | 9 March 2012 (USA)\r\nA tone-deaf cop works to track down a group of guerilla percussionists whose anarchic public performances are terrorizing the city.\r\nDirectors: Ola Simonsson, Johannes Stjärne Nilsson\r\nWriters: Ola Simonsson (screenplay), Johannes Stjärne Nilsson (screenplay) |\r\nStars: Sanna Persson, Magnus Börjeson, Johannes Björk |\r\n\r\nGeneral\r\nComplete name                            : SoundofNoiseSOUND_OF_NOISE_Title2.mp4\r\nFormat                                   : MPEG-4\r\nFormat profile                           : Base Media\r\nCodec ID                                 : isom (isom/iso2/avc1/mp41)\r\nFile size                                : 1.04 GiB\r\nDuration                                 : 1h 42mn\r\nOverall bit rate                         : 1 456 Kbps\r\nMovie name                               : SOUND_OF_NOISE\r\nGenre                                    : Musical\r\nWriting application                      : Lavf54.6.100\r\n\r\nVideo\r\nID                                       : 1\r\nFormat                                   : AVC\r\nFormat/Info                              : Advanced Video Codec\r\nFormat profile                           :   \r\nFormat settings, CABAC                   : No\r\nFormat settings, ReFrames                : 6 frames\r\nFormat settings, GOP                     : M=1, N=60\r\nCodec ID                                 : avc1\r\nCodec ID/Info                            : Advanced Video Coding\r\nDuration                                 : 1h 42mn\r\nBit rate                                 : 1 191 Kbps\r\nWidth                                    : 720 pixels\r\nHeight                                   : 404 pixels\r\nDisplay aspect ratio                     : 16:9\r\nFrame rate mode                          : Constant\r\nFrame rate                               : 29.970 (30000/1001) fps\r\nColor space                              : YUV\r\nChroma subsampling                       : 4:2:0\r\nBit depth                                : 8 bits\r\nScan type                                : Progressive\r\nBits/(Pixel*Frame)                       : 0.137\r\nStream size                              : 872 MiB (82%)\r\n\r\nAudio\r\nID                                       : 2\r\nFormat                                   : AAC\r\nFormat/Info                              : Advanced Audio Codec\r\nFormat profile                           : LC\r\nCodec ID                                 : 40\r\nDuration                                 : 1h 42mn\r\nBit rate mode                            : Constant\r\nBit rate                                 : 258 Kbps\r\nChannel(s)                               : 2 channels\r\nChannel(s)_Original                      : 6 channels\r\nChannel positions                        : Front: L C R, Side: L R, LFE\r\nSampling rate                            : 44.1 KHz\r\nFrame rate                               : 43.066 fps (1024 spf)\r\nCompression mode                         : Lossy\r\nStream size                              : 189 MiB (18%)\r\nDefault                                  : Yes\r\nAlternate group                          : 1","torrent":{"xt":"urn:btih:a5ccff696e519bd1956c9cb690ada40f92e6c428","amp;dn":"Sound+of+Noise%282010%29MPEG-4%5BDaScubaDude%5D","amp;tr":["udp%3A%2F%2Ftracker.leechers-paradise.org%3A6969","udp%3A%2F%2Fzer0day.ch%3A1337","udp%3A%2F%2Fopen.demonii.com%3A1337","udp%3A%2F%2Ftracker.coppersurfer.tk%3A6969","udp%3A%2F%2Fexodus.desync.com%3A6969"],"infoHash":"a5ccff696e519bd1956c9cb690ada40f92e6c428","infoHashBuffer":{"type":"Buffer","data":[165,204,255,105,110,81,155,209,149,108,156,182,144,173,164,15,146,230,196,40]},"announce":[],"urlList":[]}}